<mxfile host="Electron" agent="Mozilla/5.0 (Macintosh; Intel Mac OS X 10_15_7) AppleWebKit/537.36 (KHTML, like Gecko) draw.io/26.0.4 Chrome/128.0.6613.186 Electron/32.2.5 Safari/537.36" version="26.0.4">
  <diagram name="Page-1" id="Ruf6ueTb-qquUxmucqOr">
    <mxGraphModel dx="858" dy="545" grid="1" gridSize="10" guides="1" tooltips="1" connect="1" arrows="1" fold="1" page="1" pageScale="1" pageWidth="850" pageHeight="1100" math="0" shadow="0">
      <root>
        <mxCell id="0" />
        <mxCell id="1" parent="0" />
        <mxCell id="kdopMfYRj33vuy38KJCQ-2" value="" style="sketch=0;outlineConnect=0;fontColor=#232F3E;gradientColor=none;fillColor=#232F3D;strokeColor=none;dashed=0;verticalLabelPosition=bottom;verticalAlign=top;align=center;html=1;fontSize=12;fontStyle=0;aspect=fixed;pointerEvents=1;shape=mxgraph.aws4.user;" vertex="1" parent="1">
          <mxGeometry x="50" y="280" width="78" height="78" as="geometry" />
        </mxCell>
        <mxCell id="kdopMfYRj33vuy38KJCQ-22" value="" style="edgeStyle=orthogonalEdgeStyle;rounded=0;orthogonalLoop=1;jettySize=auto;html=1;" edge="1" parent="1" source="kdopMfYRj33vuy38KJCQ-3" target="kdopMfYRj33vuy38KJCQ-2">
          <mxGeometry relative="1" as="geometry" />
        </mxCell>
        <mxCell id="kdopMfYRj33vuy38KJCQ-23" value="Authentication" style="edgeLabel;html=1;align=center;verticalAlign=middle;resizable=0;points=[];" vertex="1" connectable="0" parent="kdopMfYRj33vuy38KJCQ-22">
          <mxGeometry x="0.1913" relative="1" as="geometry">
            <mxPoint x="5" y="11" as="offset" />
          </mxGeometry>
        </mxCell>
        <mxCell id="kdopMfYRj33vuy38KJCQ-3" value="AWS Cognito" style="sketch=0;points=[[0,0,0],[0.25,0,0],[0.5,0,0],[0.75,0,0],[1,0,0],[0,1,0],[0.25,1,0],[0.5,1,0],[0.75,1,0],[1,1,0],[0,0.25,0],[0,0.5,0],[0,0.75,0],[1,0.25,0],[1,0.5,0],[1,0.75,0]];outlineConnect=0;fontColor=#232F3E;fillColor=#DD344C;strokeColor=#ffffff;dashed=0;verticalLabelPosition=bottom;verticalAlign=top;align=center;html=1;fontSize=12;fontStyle=0;aspect=fixed;shape=mxgraph.aws4.resourceIcon;resIcon=mxgraph.aws4.cognito;" vertex="1" parent="1">
          <mxGeometry x="200" y="280" width="78" height="78" as="geometry" />
        </mxCell>
        <mxCell id="kdopMfYRj33vuy38KJCQ-4" value="S3 Hosted&lt;div&gt;Website FE&lt;/div&gt;" style="sketch=0;points=[[0,0,0],[0.25,0,0],[0.5,0,0],[0.75,0,0],[1,0,0],[0,1,0],[0.25,1,0],[0.5,1,0],[0.75,1,0],[1,1,0],[0,0.25,0],[0,0.5,0],[0,0.75,0],[1,0.25,0],[1,0.5,0],[1,0.75,0]];outlineConnect=0;fontColor=#232F3E;fillColor=#7AA116;strokeColor=#ffffff;dashed=0;verticalLabelPosition=bottom;verticalAlign=top;align=center;html=1;fontSize=12;fontStyle=0;aspect=fixed;shape=mxgraph.aws4.resourceIcon;resIcon=mxgraph.aws4.s3;" vertex="1" parent="1">
          <mxGeometry x="360" y="280" width="78" height="78" as="geometry" />
        </mxCell>
        <mxCell id="kdopMfYRj33vuy38KJCQ-5" value="DynamoDB" style="sketch=0;points=[[0,0,0],[0.25,0,0],[0.5,0,0],[0.75,0,0],[1,0,0],[0,1,0],[0.25,1,0],[0.5,1,0],[0.75,1,0],[1,1,0],[0,0.25,0],[0,0.5,0],[0,0.75,0],[1,0.25,0],[1,0.5,0],[1,0.75,0]];outlineConnect=0;fontColor=#232F3E;fillColor=#C925D1;strokeColor=#ffffff;dashed=0;verticalLabelPosition=bottom;verticalAlign=top;align=center;html=1;fontSize=12;fontStyle=0;aspect=fixed;shape=mxgraph.aws4.resourceIcon;resIcon=mxgraph.aws4.dynamodb;" vertex="1" parent="1">
          <mxGeometry x="760" y="478" width="78" height="78" as="geometry" />
        </mxCell>
        <mxCell id="kdopMfYRj33vuy38KJCQ-6" value="Read Lambda" style="sketch=0;points=[[0,0,0],[0.25,0,0],[0.5,0,0],[0.75,0,0],[1,0,0],[0,1,0],[0.25,1,0],[0.5,1,0],[0.75,1,0],[1,1,0],[0,0.25,0],[0,0.5,0],[0,0.75,0],[1,0.25,0],[1,0.5,0],[1,0.75,0]];outlineConnect=0;fontColor=#232F3E;fillColor=#ED7100;strokeColor=#ffffff;dashed=0;verticalLabelPosition=bottom;verticalAlign=top;align=center;html=1;fontSize=12;fontStyle=0;aspect=fixed;shape=mxgraph.aws4.resourceIcon;resIcon=mxgraph.aws4.lambda;" vertex="1" parent="1">
          <mxGeometry x="480" y="420" width="78" height="78" as="geometry" />
        </mxCell>
        <mxCell id="kdopMfYRj33vuy38KJCQ-7" value="API Gateway" style="sketch=0;points=[[0,0,0],[0.25,0,0],[0.5,0,0],[0.75,0,0],[1,0,0],[0,1,0],[0.25,1,0],[0.5,1,0],[0.75,1,0],[1,1,0],[0,0.25,0],[0,0.5,0],[0,0.75,0],[1,0.25,0],[1,0.5,0],[1,0.75,0]];outlineConnect=0;fontColor=#232F3E;fillColor=#E7157B;strokeColor=#ffffff;dashed=0;verticalLabelPosition=bottom;verticalAlign=top;align=center;html=1;fontSize=12;fontStyle=0;aspect=fixed;shape=mxgraph.aws4.resourceIcon;resIcon=mxgraph.aws4.api_gateway;" vertex="1" parent="1">
          <mxGeometry x="360" y="478" width="78" height="78" as="geometry" />
        </mxCell>
        <mxCell id="kdopMfYRj33vuy38KJCQ-8" value="Mobile Web app" style="sketch=0;outlineConnect=0;fontColor=#232F3E;gradientColor=none;fillColor=#232F3D;strokeColor=none;dashed=0;verticalLabelPosition=bottom;verticalAlign=top;align=center;html=1;fontSize=12;fontStyle=0;aspect=fixed;pointerEvents=1;shape=mxgraph.aws4.mobile_client;" vertex="1" parent="1">
          <mxGeometry x="68.5" y="400" width="41" height="78" as="geometry" />
        </mxCell>
        <mxCell id="kdopMfYRj33vuy38KJCQ-9" value="Write Lambda" style="sketch=0;points=[[0,0,0],[0.25,0,0],[0.5,0,0],[0.75,0,0],[1,0,0],[0,1,0],[0.25,1,0],[0.5,1,0],[0.75,1,0],[1,1,0],[0,0.25,0],[0,0.5,0],[0,0.75,0],[1,0.25,0],[1,0.5,0],[1,0.75,0]];outlineConnect=0;fontColor=#232F3E;fillColor=#ED7100;strokeColor=#ffffff;dashed=0;verticalLabelPosition=bottom;verticalAlign=top;align=center;html=1;fontSize=12;fontStyle=0;aspect=fixed;shape=mxgraph.aws4.resourceIcon;resIcon=mxgraph.aws4.lambda;" vertex="1" parent="1">
          <mxGeometry x="480" y="540" width="78" height="78" as="geometry" />
        </mxCell>
        <mxCell id="kdopMfYRj33vuy38KJCQ-10" value="S3 Analytics dump" style="sketch=0;points=[[0,0,0],[0.25,0,0],[0.5,0,0],[0.75,0,0],[1,0,0],[0,1,0],[0.25,1,0],[0.5,1,0],[0.75,1,0],[1,1,0],[0,0.25,0],[0,0.5,0],[0,0.75,0],[1,0.25,0],[1,0.5,0],[1,0.75,0]];outlineConnect=0;fontColor=#232F3E;fillColor=#7AA116;strokeColor=#ffffff;dashed=0;verticalLabelPosition=bottom;verticalAlign=top;align=center;html=1;fontSize=12;fontStyle=0;aspect=fixed;shape=mxgraph.aws4.resourceIcon;resIcon=mxgraph.aws4.s3;" vertex="1" parent="1">
          <mxGeometry x="1000" y="478" width="78" height="78" as="geometry" />
        </mxCell>
        <mxCell id="kdopMfYRj33vuy38KJCQ-11" value="" style="endArrow=classic;html=1;rounded=0;targetPerimeterSpacing=6;sourcePerimeterSpacing=6;edgeStyle=orthogonalEdgeStyle;" edge="1" parent="1" source="kdopMfYRj33vuy38KJCQ-8" target="kdopMfYRj33vuy38KJCQ-7">
          <mxGeometry width="50" height="50" relative="1" as="geometry">
            <mxPoint x="140" y="570" as="sourcePoint" />
            <mxPoint x="190" y="520" as="targetPoint" />
            <Array as="points">
              <mxPoint x="320" y="450" />
              <mxPoint x="320" y="520" />
            </Array>
          </mxGeometry>
        </mxCell>
        <mxCell id="kdopMfYRj33vuy38KJCQ-25" value="Data read/write" style="edgeLabel;html=1;align=center;verticalAlign=middle;resizable=0;points=[];" vertex="1" connectable="0" parent="kdopMfYRj33vuy38KJCQ-11">
          <mxGeometry x="-0.3549" y="1" relative="1" as="geometry">
            <mxPoint x="-5" y="11" as="offset" />
          </mxGeometry>
        </mxCell>
        <mxCell id="kdopMfYRj33vuy38KJCQ-12" value="" style="endArrow=classic;html=1;rounded=0;targetPerimeterSpacing=6;sourcePerimeterSpacing=6;edgeStyle=orthogonalEdgeStyle;" edge="1" parent="1" source="kdopMfYRj33vuy38KJCQ-4" target="kdopMfYRj33vuy38KJCQ-8">
          <mxGeometry width="50" height="50" relative="1" as="geometry">
            <mxPoint x="364" y="530" as="sourcePoint" />
            <mxPoint x="126" y="449" as="targetPoint" />
            <Array as="points">
              <mxPoint x="320" y="319" />
              <mxPoint x="320" y="430" />
            </Array>
          </mxGeometry>
        </mxCell>
        <mxCell id="kdopMfYRj33vuy38KJCQ-24" value="Frontend Assets" style="edgeLabel;html=1;align=center;verticalAlign=middle;resizable=0;points=[];" vertex="1" connectable="0" parent="kdopMfYRj33vuy38KJCQ-12">
          <mxGeometry x="0.5327" relative="1" as="geometry">
            <mxPoint x="13" y="-10" as="offset" />
          </mxGeometry>
        </mxCell>
        <mxCell id="kdopMfYRj33vuy38KJCQ-13" value="" style="endArrow=classic;html=1;rounded=0;targetPerimeterSpacing=6;sourcePerimeterSpacing=6;edgeStyle=orthogonalEdgeStyle;" edge="1" parent="1" source="kdopMfYRj33vuy38KJCQ-7" target="kdopMfYRj33vuy38KJCQ-6">
          <mxGeometry width="50" height="50" relative="1" as="geometry">
            <mxPoint x="126" y="450" as="sourcePoint" />
            <mxPoint x="364" y="530" as="targetPoint" />
            <Array as="points">
              <mxPoint x="460" y="520" />
              <mxPoint x="460" y="460" />
            </Array>
          </mxGeometry>
        </mxCell>
        <mxCell id="kdopMfYRj33vuy38KJCQ-14" value="" style="endArrow=classic;html=1;rounded=0;targetPerimeterSpacing=6;sourcePerimeterSpacing=6;edgeStyle=orthogonalEdgeStyle;" edge="1" parent="1" source="kdopMfYRj33vuy38KJCQ-7" target="kdopMfYRj33vuy38KJCQ-9">
          <mxGeometry width="50" height="50" relative="1" as="geometry">
            <mxPoint x="454" y="530" as="sourcePoint" />
            <mxPoint x="484" y="490" as="targetPoint" />
            <Array as="points">
              <mxPoint x="460" y="520" />
              <mxPoint x="460" y="580" />
            </Array>
          </mxGeometry>
        </mxCell>
        <mxCell id="kdopMfYRj33vuy38KJCQ-15" value="" style="endArrow=classic;html=1;rounded=0;edgeStyle=orthogonalEdgeStyle;targetPerimeterSpacing=6;sourcePerimeterSpacing=6;" edge="1" parent="1" source="kdopMfYRj33vuy38KJCQ-5" target="kdopMfYRj33vuy38KJCQ-6">
          <mxGeometry width="50" height="50" relative="1" as="geometry">
            <mxPoint x="640" y="550" as="sourcePoint" />
            <mxPoint x="690" y="500" as="targetPoint" />
            <Array as="points">
              <mxPoint x="659" y="510" />
              <mxPoint x="659" y="460" />
            </Array>
          </mxGeometry>
        </mxCell>
        <mxCell id="kdopMfYRj33vuy38KJCQ-16" value="" style="endArrow=classic;html=1;rounded=0;edgeStyle=orthogonalEdgeStyle;targetPerimeterSpacing=6;sourcePerimeterSpacing=6;" edge="1" parent="1" source="kdopMfYRj33vuy38KJCQ-9" target="kdopMfYRj33vuy38KJCQ-5">
          <mxGeometry width="50" height="50" relative="1" as="geometry">
            <mxPoint x="764" y="527" as="sourcePoint" />
            <mxPoint x="574" y="489" as="targetPoint" />
            <Array as="points">
              <mxPoint x="660" y="580" />
              <mxPoint x="660" y="530" />
            </Array>
          </mxGeometry>
        </mxCell>
        <mxCell id="kdopMfYRj33vuy38KJCQ-18" value="Dynamo&lt;div&gt;Stream&lt;/div&gt;" style="sketch=0;outlineConnect=0;fontColor=#232F3E;gradientColor=none;fillColor=#C925D1;strokeColor=none;dashed=0;verticalLabelPosition=bottom;verticalAlign=top;align=center;html=1;fontSize=12;fontStyle=0;aspect=fixed;pointerEvents=1;shape=mxgraph.aws4.dynamodb_stream;" vertex="1" parent="1">
          <mxGeometry x="880" y="478" width="78" height="78" as="geometry" />
        </mxCell>
        <mxCell id="kdopMfYRj33vuy38KJCQ-19" value="" style="endArrow=none;html=1;rounded=0;edgeStyle=orthogonalEdgeStyle;targetPerimeterSpacing=6;sourcePerimeterSpacing=6;endFill=0;" edge="1" parent="1" source="kdopMfYRj33vuy38KJCQ-5" target="kdopMfYRj33vuy38KJCQ-18">
          <mxGeometry width="50" height="50" relative="1" as="geometry">
            <mxPoint x="574" y="609" as="sourcePoint" />
            <mxPoint x="764" y="540" as="targetPoint" />
            <Array as="points">
              <mxPoint x="860" y="520" />
              <mxPoint x="860" y="520" />
            </Array>
          </mxGeometry>
        </mxCell>
        <mxCell id="kdopMfYRj33vuy38KJCQ-20" value="" style="endArrow=classic;html=1;rounded=0;edgeStyle=orthogonalEdgeStyle;targetPerimeterSpacing=6;sourcePerimeterSpacing=6;" edge="1" parent="1" source="kdopMfYRj33vuy38KJCQ-18" target="kdopMfYRj33vuy38KJCQ-10">
          <mxGeometry width="50" height="50" relative="1" as="geometry">
            <mxPoint x="854" y="530" as="sourcePoint" />
            <mxPoint x="884" y="530" as="targetPoint" />
            <Array as="points" />
          </mxGeometry>
        </mxCell>
        <mxCell id="kdopMfYRj33vuy38KJCQ-26" value="SNS" style="sketch=0;points=[[0,0,0],[0.25,0,0],[0.5,0,0],[0.75,0,0],[1,0,0],[0,1,0],[0.25,1,0],[0.5,1,0],[0.75,1,0],[1,1,0],[0,0.25,0],[0,0.5,0],[0,0.75,0],[1,0.25,0],[1,0.5,0],[1,0.75,0]];outlineConnect=0;fontColor=#232F3E;fillColor=#E7157B;strokeColor=#ffffff;dashed=0;verticalLabelPosition=bottom;verticalAlign=top;align=center;html=1;fontSize=12;fontStyle=0;aspect=fixed;shape=mxgraph.aws4.resourceIcon;resIcon=mxgraph.aws4.sns;" vertex="1" parent="1">
          <mxGeometry x="360" y="720" width="78" height="78" as="geometry" />
        </mxCell>
        <mxCell id="kdopMfYRj33vuy38KJCQ-27" value="EventBridge&lt;div&gt;Schedule&lt;/div&gt;" style="sketch=0;outlineConnect=0;fontColor=#232F3E;gradientColor=none;fillColor=#E7157B;strokeColor=none;dashed=0;verticalLabelPosition=bottom;verticalAlign=top;align=center;html=1;fontSize=12;fontStyle=0;aspect=fixed;pointerEvents=1;shape=mxgraph.aws4.event_time_based;" vertex="1" parent="1">
          <mxGeometry x="760" y="720" width="78" height="78" as="geometry" />
        </mxCell>
        <mxCell id="kdopMfYRj33vuy38KJCQ-28" value="Reminder function" style="sketch=0;points=[[0,0,0],[0.25,0,0],[0.5,0,0],[0.75,0,0],[1,0,0],[0,1,0],[0.25,1,0],[0.5,1,0],[0.75,1,0],[1,1,0],[0,0.25,0],[0,0.5,0],[0,0.75,0],[1,0.25,0],[1,0.5,0],[1,0.75,0]];outlineConnect=0;fontColor=#232F3E;fillColor=#ED7100;strokeColor=#ffffff;dashed=0;verticalLabelPosition=bottom;verticalAlign=top;align=center;html=1;fontSize=12;fontStyle=0;aspect=fixed;shape=mxgraph.aws4.resourceIcon;resIcon=mxgraph.aws4.lambda;" vertex="1" parent="1">
          <mxGeometry x="480" y="720" width="78" height="78" as="geometry" />
        </mxCell>
        <mxCell id="kdopMfYRj33vuy38KJCQ-29" value="" style="endArrow=classic;html=1;rounded=0;targetPerimeterSpacing=6;sourcePerimeterSpacing=6;" edge="1" parent="1" source="kdopMfYRj33vuy38KJCQ-27" target="kdopMfYRj33vuy38KJCQ-28">
          <mxGeometry width="50" height="50" relative="1" as="geometry">
            <mxPoint x="610" y="690" as="sourcePoint" />
            <mxPoint x="660" y="640" as="targetPoint" />
          </mxGeometry>
        </mxCell>
        <mxCell id="kdopMfYRj33vuy38KJCQ-30" value="Trigger check for last meal" style="edgeLabel;html=1;align=center;verticalAlign=middle;resizable=0;points=[];" vertex="1" connectable="0" parent="kdopMfYRj33vuy38KJCQ-29">
          <mxGeometry x="-0.273" y="-2" relative="1" as="geometry">
            <mxPoint x="-5" y="-7" as="offset" />
          </mxGeometry>
        </mxCell>
        <mxCell id="kdopMfYRj33vuy38KJCQ-31" value="" style="endArrow=classic;html=1;rounded=0;targetPerimeterSpacing=6;sourcePerimeterSpacing=24;edgeStyle=orthogonalEdgeStyle;" edge="1" parent="1" source="kdopMfYRj33vuy38KJCQ-5" target="kdopMfYRj33vuy38KJCQ-28">
          <mxGeometry width="50" height="50" relative="1" as="geometry">
            <mxPoint x="574" y="769" as="sourcePoint" />
            <mxPoint x="764" y="769" as="targetPoint" />
            <Array as="points">
              <mxPoint x="799" y="660" />
              <mxPoint x="519" y="660" />
            </Array>
          </mxGeometry>
        </mxCell>
        <mxCell id="kdopMfYRj33vuy38KJCQ-32" value="Query" style="edgeLabel;html=1;align=center;verticalAlign=middle;resizable=0;points=[];" vertex="1" connectable="0" parent="kdopMfYRj33vuy38KJCQ-31">
          <mxGeometry x="-0.273" y="-2" relative="1" as="geometry">
            <mxPoint x="-49" y="-7" as="offset" />
          </mxGeometry>
        </mxCell>
        <mxCell id="kdopMfYRj33vuy38KJCQ-33" value="Aurora Serverless?" style="sketch=0;points=[[0,0,0],[0.25,0,0],[0.5,0,0],[0.75,0,0],[1,0,0],[0,1,0],[0.25,1,0],[0.5,1,0],[0.75,1,0],[1,1,0],[0,0.25,0],[0,0.5,0],[0,0.75,0],[1,0.25,0],[1,0.5,0],[1,0.75,0]];outlineConnect=0;fontColor=#232F3E;fillColor=#C925D1;strokeColor=#ffffff;dashed=0;verticalLabelPosition=bottom;verticalAlign=top;align=center;html=1;fontSize=12;fontStyle=0;aspect=fixed;shape=mxgraph.aws4.resourceIcon;resIcon=mxgraph.aws4.aurora;" vertex="1" parent="1">
          <mxGeometry x="1000" y="618" width="78" height="78" as="geometry" />
        </mxCell>
        <mxCell id="kdopMfYRj33vuy38KJCQ-34" value="" style="endArrow=classic;html=1;rounded=0;targetPerimeterSpacing=6;sourcePerimeterSpacing=6;edgeStyle=orthogonalEdgeStyle;" edge="1" parent="1" source="kdopMfYRj33vuy38KJCQ-28" target="kdopMfYRj33vuy38KJCQ-26">
          <mxGeometry width="50" height="50" relative="1" as="geometry">
            <mxPoint x="809" y="590" as="sourcePoint" />
            <mxPoint x="529" y="724" as="targetPoint" />
            <Array as="points">
              <mxPoint x="510" y="780" />
              <mxPoint x="510" y="780" />
            </Array>
          </mxGeometry>
        </mxCell>
        <mxCell id="kdopMfYRj33vuy38KJCQ-36" value="" style="endArrow=classic;html=1;rounded=0;targetPerimeterSpacing=24;sourcePerimeterSpacing=6;edgeStyle=orthogonalEdgeStyle;" edge="1" parent="1" source="kdopMfYRj33vuy38KJCQ-26" target="kdopMfYRj33vuy38KJCQ-8">
          <mxGeometry width="50" height="50" relative="1" as="geometry">
            <mxPoint x="454" y="769" as="sourcePoint" />
            <mxPoint x="484" y="769" as="targetPoint" />
            <Array as="points">
              <mxPoint x="89" y="760" />
            </Array>
          </mxGeometry>
        </mxCell>
        <mxCell id="kdopMfYRj33vuy38KJCQ-37" value="Nudge to enter meals" style="edgeLabel;html=1;align=center;verticalAlign=middle;resizable=0;points=[];" vertex="1" connectable="0" parent="kdopMfYRj33vuy38KJCQ-36">
          <mxGeometry x="0.6967" y="1" relative="1" as="geometry">
            <mxPoint as="offset" />
          </mxGeometry>
        </mxCell>
      </root>
    </mxGraphModel>
  </diagram>
</mxfile>
